<?xml version="1.0" encoding="utf-8"?>
<!-- Generator: Adobe Illustrator 15.0.2, SVG Export Plug-In . SVG Version: 6.00 Build 0)  -->
<!DOCTYPE svg PUBLIC "-//W3C//DTD SVG 1.1//EN" "http://www.w3.org/Graphics/SVG/1.1/DTD/svg11.dtd">
<svg version="1.1" id="Layer_1" xmlns="http://www.w3.org/2000/svg" xmlns:xlink="http://www.w3.org/1999/xlink" x="0px" y="0px"
	 width="599px" height="260px" viewBox="0 0 599 260" enable-background="new 0 0 599 260" xml:space="preserve">
<path display="none" fill="#FFFFFF" d="M599,200c0,20,0,40,0,60c-31.67,0-63.33,0-95,0C550.74,255.07,586.84,239.5,599,200z"/>
<path fill="#E41E26" d="M599,181c0,6.33,0,12.67,0,19c-12.16,39.5-48.26,55.07-95,60c-5,0-10,0-15,0c-29.87-1.01-50.45-16.87-61-37
	c-4.89-9.33-9.79-26.35,4-26c7.08,0.18,10.45,11.22,15,16c15.04,15.78,46.13,23.21,77,17c22.66-4.56,54.13-19.99,51-49
	c-3.93-36.4-43.6-65.6-67-83c-5.3,25.16-51.58,42.23-77,25c-4.88-3.31-9.39-10.64-10-17c-1.64-17.23,10.97-24.89,13-37
	c-13.74,2.59-28.88,3.78-43,6c2.17,7.87,6.74,13.13,5,25c-3.69,25.24-37.49,36.07-65,36c-3.59-0.01-7.86-1.38-12-1
	c-17.67,1.61-31.67,10.9-53,9c-8.87-0.79-21.9-4.6-27-7c-27.91-13.13-42.91-56.82-46-90c-0.56-5.96-0.49-14.88,0-26
	c0.9-20.37,6.89-17.68,18-15c7.09,41.32,5.92,90.51,36,109c10.99,6.75,25.47,7.87,44,9c-0.13-7.79-2.71-14.83-2-23
	c1.84-21.08,23.11-39.09,41-43c9.98-2.18,21.29,2.1,34,2c8.22-0.07,18.67-2.72,29-4c21.26-2.64,37.84-5.54,58-9
	c11.2-1.92,22.19-6.42,29-5c4.76,0.99,4.81,5.01,10,9c5.07,3.89,10.41,4.23,13,7c3.36,3.59,3.54,9.64,7,14c6.36,8,18.96,14,28,21
	C566.24,114.87,590.57,141.78,599,181z M442,104c17.03,12.19,50.82,4.76,49-20c-7.17-5.16-12.2-12.47-17-20
	C458.18,72.18,446.97,84.97,442,104z M311,109c14.48,13.03,72.51,2.94,67-17c-2.4-8.68-34.46-12.58-49-9
	C316.67,86.04,311.41,96.67,311,109z"/>
<path display="none" fill="#FFFFFF" d="M599,0c0,60.33,0,120.67,0,181c-8.43-39.22-32.76-66.13-61-88c-9.04-7-21.64-13-28-21
	c-3.46-4.36-3.64-10.41-7-14c-2.59-2.77-7.93-3.11-13-7c-5.19-3.99-5.24-8.01-10-9c-6.81-1.42-17.8,3.08-29,5
	c-20.16,3.46-36.74,6.36-58,9c-10.33,1.28-20.78,3.93-29,4c-12.71,0.1-24.02-4.18-34-2c-17.89,3.91-39.16,21.92-41,43
	c-0.71,8.17,1.87,15.21,2,23c-18.53-1.13-33.01-2.25-44-9c-30.08-18.49-28.91-67.68-36-109c-11.11-2.68-17.1-5.37-18,15
	c-0.49,11.12-0.56,20.04,0,26c3.09,33.18,18.09,76.87,46,90c5.1,2.4,18.13,6.21,27,7c21.33,1.9,35.33-7.39,53-9
	c4.14-0.38,8.41,0.99,12,1c27.51,0.07,61.31-10.76,65-36c1.74-11.87-2.83-17.13-5-25c14.12-2.22,29.26-3.41,43-6
	c-2.03,12.11-14.64,19.77-13,37c0.61,6.36,5.12,13.69,10,17c25.42,17.23,71.7,0.16,77-25c23.4,17.4,63.07,46.6,67,83
	c3.13,29.01-28.34,44.44-51,49c-30.87,6.21-61.96-1.22-77-17c-4.55-4.78-7.92-15.82-15-16c-13.79-0.35-8.89,16.67-4,26
	c10.55,20.13,31.13,35.99,61,37c-163,0-326,0-489,0c0-73.67,0-147.33,0-221c1.28,6.05,11,3.67,15,7c0.98,18.21,5.85,48.18,7,69
	c0.87,15.75-0.4,29.42,14,29c20.58-0.6,12.62-41.64,10-63c-2.16-17.57-7.04-34.51-6-48c12.54-4.81,37.05-12.47,52-5
	c-3.69,15.29-44.16,21.42-38,46c3.58,14.29,41.59,17.21,61,19c21.53,1.98,54,6.98,54,27c0,11.91-13.66,23.37-24,30
	c-20.12,12.91-66.48,22.33-70-10c-0.09-0.86,4.01-18.63-5-20c-10.39-1.57-13.3,15.53-14,24c-0.82,9.89,1.75,19.46,5,25
	c27.22,46.36,112.83,1.46,126-35c5.02-13.9,1.62-30.68-10-41c-21.38-19-60.06-16.79-96-27c8.84-12.8,41.81-28.71,27-52
	c-11.68-18.36-51.55-2.74-70-1C33.83,8.51,31.81,1.86,25,0C216.34,0,407.66,0,599,0z"/>
<path display="none" fill="#FFFFFF" d="M491,84c1.82,24.76-31.97,32.19-49,20c4.97-19.03,16.18-31.82,32-40
	C478.8,71.53,483.83,78.84,491,84z"/>
<path display="none" fill="#FFFFFF" d="M378,92c5.51,19.94-52.52,30.03-67,17c0.41-12.33,5.67-22.96,18-26
	C343.54,79.42,375.6,83.32,378,92z"/>
<path fill="#E41E26" d="M177,93c11.62,10.32,15.02,27.1,10,41c-13.17,36.46-98.78,81.36-126,35c-3.25-5.54-5.82-15.11-5-25
	c0.7-8.47,3.61-25.57,14-24c9.01,1.37,4.91,19.14,5,20c3.52,32.33,49.88,22.91,70,10c10.34-6.63,24-18.09,24-30
	c0-20.02-32.47-25.02-54-27c-19.41-1.79-57.42-4.71-61-19c-6.16-24.58,34.31-30.71,38-46c-14.95-7.47-39.46,0.19-52,5
	c-1.04,13.49,3.84,30.43,6,48c2.62,21.36,10.58,62.4-10,63c-14.4,0.42-13.13-13.25-14-29c-1.15-20.82-6.02-50.79-7-69
	c-4-3.33-13.72-0.95-15-7c0-3,0-6,0-9c2.51-4.82,8.69-5.98,12-10C10.45,9.12,14.12,3.45,20,0c1.67,0,3.33,0,5,0
	c6.81,1.86,8.83,8.51,13,13c18.45-1.74,58.32-17.36,70,1c14.81,23.29-18.16,39.2-27,52C116.94,76.21,155.62,74,177,93z"/>
<path display="none" fill="#FFFFFF" d="M0,0c6.67,0,13.33,0,20,0c-5.88,3.45-9.55,9.12-8,20c-3.31,4.02-9.49,5.18-12,10
	C0,20,0,10,0,0z"/>
</svg>
