<?xml version="1.0" encoding="utf-8"?>
<!-- Generator: Adobe Illustrator 15.0.2, SVG Export Plug-In . SVG Version: 6.00 Build 0)  -->
<!DOCTYPE svg PUBLIC "-//W3C//DTD SVG 1.1//EN" "http://www.w3.org/Graphics/SVG/1.1/DTD/svg11.dtd">
<svg version="1.1" id="Layer_1" xmlns="http://www.w3.org/2000/svg" xmlns:xlink="http://www.w3.org/1999/xlink" x="0px" y="0px" viewBox="0 0 599 260" enable-background="new 0 0 599 260" xml:space="preserve">
<path display="none" fill="#FFFFFF" d="M599,200c0,20,0,40,0,60c-31.67,0-63.33,0-95,0C550.74,255.07,586.84,239.5,599,200z"/>
<path fill="#E41E26" d="M599,181c0,6.33,0,12.67,0,19c-12.16,39.5-48.26,55.07-95,60c-5,0-10,0-15,0c-29.87-1.01-50.45-16.87-61-37
	c-4.89-9.33-9.79-26.35,4-26c7.08,0.18,10.45,11.22,15,16c15.04,15.78,46.13,23.21,77,17c22.66-4.56,54.13-19.99,51-49
	c-3.93-36.4-43.6-65.6-67-83c-5.3,25.16-51.58,42.23-77,25c-4.88-3.31-9.39-10.64-10-17c-1.64-17.23,10.97-24.89,13-37
	c-13.74,2.59-28.88,3.78-43,6c2.17,7.87,6.74,13.13,5,25c-3.69,25.24-37.49,36.07-65,36c-3.59-0.01-7.86-1.38-12-1
	c-17.67,1.61-31.67,10.9-53,9c-8.87-0.79-21.9-4.6-27-7c-27.91-13.13-42.91-56.82-46-90c-0.56-5.96-0.49-14.88,0-26
	c0.9-20.37,6.89-17.68,18-15c7.09,41.32,5.92,90.51,36,109c10.99,6.75,25.47,7.87,44,9c-0.13-7.79-2.71-14.83-2-23
	c1.84-21.08,23.11-39.09,41-43c9.98-2.18,21.29,2.1,34,2c8.22-0.07,18.67-2.72,29-4c21.26-2.64,37.84-5.54,58-9
	c11.2-1.92,22.19-6.42,29-5c4.76,0.99,4.81,5.01,10,9c5.07,3.89,10.41,4.23,13,7c3.36,3.59,3.54,9.64,7,14c6.36,8,18.96,14,28,21
	C566.24,114.87,590.57,141.78,599,181z M442,104c17.03,12.19,50.82,4.76,49-20c-7.17-5.16-12.2-12.47-17-20
	C458.18,72.18,446.97,84.97,442,104z M311,109c14.48,13.03,72.51,2.94,67-17c-2.4-8.68-34.46-12.58-49-9
	C316.67,86.04,311.41,96.67,311,109z"/>
<path fill="#E41E26" d="M177,93c11.62,10.32,15.02,27.1,10,41c-13.17,36.46-98.78,81.36-126,35c-3.25-5.54-5.82-15.11-5-25
	c0.7-8.47,3.61-25.57,14-24c9.01,1.37,4.91,19.14,5,20c3.52,32.33,49.88,22.91,70,10c10.34-6.63,24-18.09,24-30
	c0-20.02-32.47-25.02-54-27c-19.41-1.79-57.42-4.71-61-19c-6.16-24.58,34.31-30.71,38-46c-14.95-7.47-39.46,0.19-52,5
	c-1.04,13.49,3.84,30.43,6,48c2.62,21.36,10.58,62.4-10,63c-14.4,0.42-13.13-13.25-14-29c-1.15-20.82-6.02-50.79-7-69
	c-4-3.33-13.72-0.95-15-7c0-3,0-6,0-9c2.51-4.82,8.69-5.98,12-10C10.45,9.12,14.12,3.45,20,0c1.67,0,3.33,0,5,0
	c6.81,1.86,8.83,8.51,13,13c18.45-1.74,58.32-17.36,70,1c14.81,23.29-18.16,39.2-27,52C116.94,76.21,155.62,74,177,93z"/>
</svg>
